<svg width="267" height="273" viewBox="0 0 267 273" fill="none" xmlns="http://www.w3.org/2000/svg">
<path d="M110.84 36.9749C123.649 25.8905 142.653 25.8905 155.462 36.9749L179.462 57.7434C182.734 60.5741 186.514 62.7565 190.601 64.174L220.587 74.5744C228.777 77.4151 235.264 83.1124 239.218 90.2282L243.499 85.9476V105.765C243.572 108.221 243.378 110.718 242.898 113.219L236.912 144.387C236.096 148.636 236.096 153 236.912 157.249L241.004 178.557L243.499 176.062V193.867C243.519 194.538 243.519 195.206 243.499 195.871V197.141L243.44 197.109C242.554 210.498 233.779 222.486 220.587 227.062L190.601 237.462C186.514 238.88 182.734 241.062 179.462 243.893L155.462 264.661C142.653 275.746 123.649 275.746 110.84 264.661L86.8399 243.893C83.5687 241.062 79.7888 238.88 75.7017 237.462L45.7157 227.062C32.5265 222.487 23.7532 210.505 22.8633 197.12L22.8241 197.141V196.421C22.777 195.393 22.7765 194.357 22.8241 193.316V176.062L25.3016 178.539L29.3904 157.249C30.2063 153 30.2063 148.636 29.3904 144.387L23.4044 113.219C22.8156 110.153 22.6581 107.092 22.8931 104.106V85.9476L27.116 90.1706C31.0732 83.0817 37.5476 77.4074 45.7156 74.5744L75.7017 64.174C79.7887 62.7565 83.5687 60.5741 86.8399 57.7434L110.84 36.9749Z" fill="#0C3855"/>
<path d="M110.84 36.9749C123.649 25.8905 142.653 25.8905 155.462 36.9749L179.462 57.7434C182.734 60.5741 186.514 62.7565 190.601 64.174L220.587 74.5744C228.777 77.4151 235.264 83.1124 239.218 90.2282L243.499 85.9476V105.765C243.572 108.221 243.378 110.718 242.898 113.219L236.912 144.387C236.096 148.636 236.096 153 236.912 157.249L241.004 178.557L243.499 176.062V193.867C243.519 194.538 243.519 195.206 243.499 195.871V197.141L243.44 197.109C242.554 210.498 233.779 222.486 220.587 227.062L190.601 237.462C186.514 238.88 182.734 241.062 179.462 243.893L155.462 264.661C142.653 275.746 123.649 275.746 110.84 264.661L86.8399 243.893C83.5687 241.062 79.7888 238.88 75.7017 237.462L45.7157 227.062C32.5265 222.487 23.7532 210.505 22.8633 197.12L22.8241 197.141V196.421C22.777 195.393 22.7765 194.357 22.8241 193.316V176.062L25.3016 178.539L29.3904 157.249C30.2063 153 30.2063 148.636 29.3904 144.387L23.4044 113.219C22.8156 110.153 22.6581 107.092 22.8931 104.106V85.9476L27.116 90.1706C31.0732 83.0817 37.5476 77.4074 45.7156 74.5744L75.7017 64.174C79.7887 62.7565 83.5687 60.5741 86.8399 57.7434L110.84 36.9749Z" fill="url(#paint0_linear_2003_2)"/>
<path d="M110.839 19.3071C123.648 8.22269 142.652 8.22267 155.461 19.307L179.462 40.0755C182.733 42.9062 186.513 45.0886 190.6 46.5062L220.586 56.9066C236.59 62.4574 246.092 78.9156 242.897 95.5507L236.911 126.72C236.095 130.968 236.095 135.333 236.911 139.581L242.897 170.75C246.092 187.385 236.59 203.843 220.586 209.394L190.6 219.794C186.513 221.212 182.733 223.394 179.462 226.225L155.462 246.994C142.652 258.078 123.648 258.078 110.839 246.994L86.839 226.225C83.5678 223.394 79.7879 221.212 75.7008 219.794L45.7148 209.394C29.7109 203.843 20.2087 187.385 23.4035 170.75L29.3895 139.581C30.2054 135.333 30.2054 130.968 29.3896 126.72L23.4035 95.5508C20.2087 78.9156 29.7109 62.4574 45.7147 56.9066L75.7008 46.5062C79.7879 45.0886 83.5678 42.9062 86.839 40.0755L110.839 19.3071Z" fill="url(#paint1_radial_2003_2)"/>
<path d="M110.839 19.3071C123.648 8.22269 142.652 8.22267 155.461 19.307L179.462 40.0755C182.733 42.9062 186.513 45.0886 190.6 46.5062L220.586 56.9066C236.59 62.4574 246.092 78.9156 242.897 95.5507L236.911 126.72C236.095 130.968 236.095 135.333 236.911 139.581L242.897 170.75C246.092 187.385 236.59 203.843 220.586 209.394L190.6 219.794C186.513 221.212 182.733 223.394 179.462 226.225L155.462 246.994C142.652 258.078 123.648 258.078 110.839 246.994L86.839 226.225C83.5678 223.394 79.7879 221.212 75.7008 219.794L45.7148 209.394C29.7109 203.843 20.2087 187.385 23.4035 170.75L29.3895 139.581C30.2054 135.333 30.2054 130.968 29.3896 126.72L23.4035 95.5508C20.2087 78.9156 29.7109 62.4574 45.7147 56.9066L75.7008 46.5062C79.7879 45.0886 83.5678 42.9062 86.839 40.0755L110.839 19.3071Z" fill="white" fill-opacity="0.1" style="mix-blend-mode:color-dodge"/>
<path d="M116.965 37.8922C126.257 29.8511 140.044 29.8511 149.336 37.8922L171.625 57.1801C173.998 59.2336 176.74 60.8168 179.705 61.8452L207.553 71.5041C219.163 75.5309 226.057 87.4704 223.739 99.5384L218.18 128.485C217.588 131.567 217.588 134.733 218.18 137.815L223.739 166.762C226.057 178.83 219.163 190.77 207.553 194.796L179.705 204.455C176.74 205.484 173.998 207.067 171.625 209.12L149.336 228.408C140.044 236.449 126.257 236.449 116.965 228.408L94.6756 209.12C92.3026 207.067 89.5604 205.484 86.5954 204.455L58.7472 194.796C47.1372 190.77 40.2439 178.83 42.5616 166.762L48.1208 137.815C48.7127 134.733 48.7127 131.567 48.1208 128.485L42.5616 99.5384C40.2439 87.4704 47.1372 75.5309 58.7472 71.5041L86.5954 61.8452C89.5604 60.8168 92.3026 59.2336 94.6756 57.1801L116.965 37.8922Z" fill="white" fill-opacity="0.2" style="mix-blend-mode:screen"/>
<g filter="url(#filter0_i_2003_2)">
<path fill-rule="evenodd" clip-rule="evenodd" d="M135.459 102.886C135.169 102.471 134.783 102.131 134.333 101.897C133.884 101.663 133.384 101.54 132.878 101.54C132.371 101.54 131.871 101.663 131.422 101.897C130.972 102.131 130.586 102.471 130.296 102.886L110.413 131.294L94.1816 115.057C93.7413 114.615 93.1799 114.315 92.5685 114.193C91.957 114.071 91.3232 114.133 90.7473 114.372C90.1713 114.611 89.6793 115.015 89.3334 115.534C88.9876 116.052 88.8036 116.662 88.8047 117.286V158.21C88.8047 161.55 90.1314 164.753 92.4929 167.114C94.8544 169.476 98.0573 170.803 101.397 170.803H164.358C167.698 170.803 170.901 169.476 173.262 167.114C175.624 164.753 176.95 161.55 176.95 158.21V117.286C176.952 116.662 176.767 116.052 176.422 115.534C176.076 115.015 175.584 114.611 175.008 114.372C174.432 114.133 173.798 114.071 173.187 114.193C172.575 114.315 172.014 114.615 171.574 115.057L155.342 131.294L135.459 102.886Z" fill="#124344"/>
</g>
<g opacity="0.3" style="mix-blend-mode:multiply">
<path d="M129.301 272.803C122.517 272.122 115.897 269.408 110.412 264.662L86.4122 243.893C83.141 241.062 79.361 238.88 75.2739 237.462L45.2879 227.062C32.0988 222.487 23.3254 210.505 22.4356 197.12L22.3963 197.141V196.422C22.3493 195.393 22.3487 194.357 22.3963 193.316V180.876L42.6043 164.316C40.1596 177.861 47.9381 191.196 60.9711 195.717L85.5779 204.251C88.9318 205.415 92.0337 207.205 94.718 209.528L114.413 226.571C118.748 230.323 123.949 232.527 129.301 233.184V272.803Z" fill="#124344"/>
</g>
<path d="M131.963 32.9178C138.741 32.7346 145.572 35.0052 151.031 39.7295L170.726 56.7723C173.41 59.0952 176.512 60.8861 179.866 62.0493L204.473 70.584C212.302 73.2996 218.235 79.1965 221.195 86.4089L242.411 82.3677C240.079 70.847 231.856 60.9635 220.159 56.9066L190.173 46.5062C186.086 45.0886 182.306 42.9062 179.035 40.0755L155.035 19.307C148.426 13.5883 140.168 10.82 131.963 11.0022V32.9178Z" fill="white"/>
<path d="M110.839 19.3071C123.648 8.22269 142.652 8.22267 155.461 19.307L179.462 40.0755C182.733 42.9062 186.513 45.0886 190.6 46.5062L220.586 56.9066C236.59 62.4574 246.092 78.9156 242.897 95.5507L236.911 126.72C236.095 130.968 236.095 135.333 236.911 139.581L242.897 170.75C246.092 187.385 236.59 203.843 220.586 209.394L190.6 219.794C186.513 221.212 182.733 223.394 179.462 226.225L155.462 246.994C142.652 258.078 123.648 258.078 110.839 246.994L86.839 226.225C83.5678 223.394 79.7879 221.212 75.7008 219.794L45.7148 209.394C29.7109 203.843 20.2087 187.385 23.4035 170.75L29.3895 139.581C30.2054 135.333 30.2054 130.968 29.3896 126.72L23.4035 95.5508C20.2087 78.9156 29.7109 62.4574 45.7147 56.9066L75.7008 46.5062C79.7879 45.0886 83.5678 42.9062 86.839 40.0755L110.839 19.3071Z" fill="url(#paint2_linear_2003_2)"/>
<path d="M73.2898 31.2022C74.1182 28.9635 77.2846 28.9635 78.113 31.2022L81.0377 39.1062C81.2981 39.81 81.8531 40.3649 82.5569 40.6254L90.4609 43.5501C92.6995 44.3785 92.6995 47.5448 90.4609 48.3732L82.5569 51.298C81.8531 51.5584 81.2981 52.1133 81.0377 52.8172L78.113 60.7211C77.2846 62.9598 74.1182 62.9598 73.2898 60.7211L70.3651 52.8172C70.1047 52.1133 69.5497 51.5584 68.8459 51.298L60.942 48.3732C58.7033 47.5448 58.7033 44.3785 60.942 43.5501L68.8459 40.6254C69.5497 40.3649 70.1047 39.81 70.3651 39.1062L73.2898 31.2022Z" fill="white"/>
<path d="M190.7 190.506C191.236 189.056 193.288 189.056 193.824 190.506L195.719 195.626C195.888 196.082 196.247 196.441 196.703 196.61L201.823 198.505C203.274 199.041 203.274 201.093 201.823 201.629L196.703 203.524C196.247 203.693 195.888 204.052 195.719 204.508L193.824 209.628C193.288 211.079 191.236 211.079 190.7 209.628L188.805 204.508C188.636 204.052 188.277 203.693 187.821 203.524L182.701 201.629C181.25 201.093 181.25 199.041 182.701 198.505L187.821 196.61C188.277 196.441 188.636 196.082 188.805 195.626L190.7 190.506Z" fill="white"/>
<defs>
<filter id="filter0_i_2003_2" x="85.2711" y="101.54" width="91.6793" height="72.796" filterUnits="userSpaceOnUse" color-interpolation-filters="sRGB">
<feFlood flood-opacity="0" result="BackgroundImageFix"/>
<feBlend mode="normal" in="SourceGraphic" in2="BackgroundImageFix" result="shape"/>
<feColorMatrix in="SourceAlpha" type="matrix" values="0 0 0 0 0 0 0 0 0 0 0 0 0 0 0 0 0 0 127 0" result="hardAlpha"/>
<feOffset dx="-3.53356" dy="3.53356"/>
<feGaussianBlur stdDeviation="2.65017"/>
<feComposite in2="hardAlpha" operator="arithmetic" k2="-1" k3="1"/>
<feColorMatrix type="matrix" values="0 0 0 0 0 0 0 0 0 0 0 0 0 0 0 0 0 0 0.25 0"/>
<feBlend mode="normal" in2="shape" result="effect1_innerShadow_2003_2"/>
</filter>
<linearGradient id="paint0_linear_2003_2" x1="133.151" y1="28.6616" x2="133.151" y2="272.975" gradientUnits="userSpaceOnUse">
<stop stop-color="#1A2FE9"/>
<stop offset="1" stop-color="#C64DBA"/>
</linearGradient>
<radialGradient id="paint1_radial_2003_2" cx="0" cy="0" r="1" gradientUnits="userSpaceOnUse" gradientTransform="translate(133.15) rotate(90) scale(266.301)">
<stop stop-color="#95CCEA"/>
<stop offset="1" stop-color="#104D7D"/>
</radialGradient>
<linearGradient id="paint2_linear_2003_2" x1="133.15" y1="0" x2="133.15" y2="266.301" gradientUnits="userSpaceOnUse">
<stop stop-color="#1A2FE9"/>
<stop offset="1" stop-color="#C64DBA"/>
</linearGradient>
</defs>
</svg>
