<svg width="390" height="460" viewBox="0 0 390 460" fill="none" xmlns="http://www.w3.org/2000/svg">
<g filter="url(#filter0_ddddd_6_1951)">
<path d="M234.479 36.9749C247.288 25.8905 266.292 25.8905 279.102 36.9749L303.102 57.7434C306.373 60.5741 310.153 62.7565 314.24 64.174L344.226 74.5744C352.416 77.4151 358.903 83.1124 362.858 90.2282L367.138 85.9476V105.765C367.211 108.221 367.017 110.718 366.537 113.219L360.551 144.387C359.735 148.636 359.735 153 360.551 157.249L364.643 178.557L367.138 176.062V193.867C367.158 194.538 367.158 195.206 367.138 195.871V197.141L367.079 197.109C366.193 210.498 357.419 222.486 344.226 227.062L314.24 237.462C310.153 238.88 306.373 241.062 303.102 243.893L279.102 264.661C266.292 275.746 247.288 275.746 234.479 264.661L210.479 243.893C207.208 241.062 203.428 238.88 199.341 237.462L169.355 227.062C156.166 222.487 147.392 210.505 146.502 197.12L146.463 197.141V196.421C146.416 195.393 146.416 194.357 146.463 193.316V176.062L148.941 178.539L153.03 157.249C153.845 153 153.845 148.636 153.03 144.387L147.044 113.219C146.455 110.153 146.297 107.092 146.532 104.106V85.9476L150.755 90.1706C154.712 83.0817 161.187 77.4074 169.355 74.5744L199.341 64.174C203.428 62.7565 207.208 60.5741 210.479 57.7434L234.479 36.9749Z" fill="#0C3855"/>
<path d="M234.479 36.9749C247.288 25.8905 266.292 25.8905 279.102 36.9749L303.102 57.7434C306.373 60.5741 310.153 62.7565 314.24 64.174L344.226 74.5744C352.416 77.4151 358.903 83.1124 362.858 90.2282L367.138 85.9476V105.765C367.211 108.221 367.017 110.718 366.537 113.219L360.551 144.387C359.735 148.636 359.735 153 360.551 157.249L364.643 178.557L367.138 176.062V193.867C367.158 194.538 367.158 195.206 367.138 195.871V197.141L367.079 197.109C366.193 210.498 357.419 222.486 344.226 227.062L314.24 237.462C310.153 238.88 306.373 241.062 303.102 243.893L279.102 264.661C266.292 275.746 247.288 275.746 234.479 264.661L210.479 243.893C207.208 241.062 203.428 238.88 199.341 237.462L169.355 227.062C156.166 222.487 147.392 210.505 146.502 197.12L146.463 197.141V196.421C146.416 195.393 146.416 194.357 146.463 193.316V176.062L148.941 178.539L153.03 157.249C153.845 153 153.845 148.636 153.03 144.387L147.044 113.219C146.455 110.153 146.297 107.092 146.532 104.106V85.9476L150.755 90.1706C154.712 83.0817 161.187 77.4074 169.355 74.5744L199.341 64.174C203.428 62.7565 207.208 60.5741 210.479 57.7434L234.479 36.9749Z" fill="url(#paint0_linear_6_1951)"/>
<path d="M234.478 19.3071C247.287 8.22269 266.292 8.22267 279.101 19.307L303.101 40.0755C306.372 42.9062 310.152 45.0886 314.239 46.5062L344.225 56.9066C360.229 62.4574 369.731 78.9156 366.536 95.5507L360.55 126.72C359.734 130.968 359.734 135.333 360.55 139.581L366.536 170.75C369.731 187.385 360.229 203.843 344.225 209.394L314.239 219.794C310.152 221.212 306.372 223.394 303.101 226.225L279.101 246.994C266.292 258.078 247.287 258.078 234.478 246.994L210.478 226.225C207.207 223.394 203.427 221.212 199.34 219.794L169.354 209.394C153.35 203.843 143.848 187.385 147.043 170.75L153.029 139.581C153.845 135.333 153.845 130.968 153.029 126.72L147.043 95.5508C143.848 78.9156 153.35 62.4574 169.354 56.9066L199.34 46.5062C203.427 45.0886 207.207 42.9062 210.478 40.0755L234.478 19.3071Z" fill="url(#paint1_radial_6_1951)"/>
<path d="M234.478 19.3071C247.287 8.22269 266.292 8.22267 279.101 19.307L303.101 40.0755C306.372 42.9062 310.152 45.0886 314.239 46.5062L344.225 56.9066C360.229 62.4574 369.731 78.9156 366.536 95.5507L360.55 126.72C359.734 130.968 359.734 135.333 360.55 139.581L366.536 170.75C369.731 187.385 360.229 203.843 344.225 209.394L314.239 219.794C310.152 221.212 306.372 223.394 303.101 226.225L279.101 246.994C266.292 258.078 247.287 258.078 234.478 246.994L210.478 226.225C207.207 223.394 203.427 221.212 199.34 219.794L169.354 209.394C153.35 203.843 143.848 187.385 147.043 170.75L153.029 139.581C153.845 135.333 153.845 130.968 153.029 126.72L147.043 95.5508C143.848 78.9156 153.35 62.4574 169.354 56.9066L199.34 46.5062C203.427 45.0886 207.207 42.9062 210.478 40.0755L234.478 19.3071Z" fill="white" fill-opacity="0.1" style="mix-blend-mode:color-dodge"/>
<path d="M240.604 37.8922C249.896 29.8511 263.683 29.8511 272.975 37.8922L295.264 57.1801C297.637 59.2336 300.379 60.8168 303.344 61.8452L331.192 71.5041C342.802 75.5309 349.696 87.4704 347.378 99.5384L341.819 128.485C341.227 131.567 341.227 134.733 341.819 137.815L347.378 166.762C349.696 178.83 342.802 190.77 331.192 194.796L303.344 204.455C300.379 205.484 297.637 207.067 295.264 209.12L272.975 228.408C263.683 236.449 249.896 236.449 240.604 228.408L218.315 209.12C215.942 207.067 213.2 205.484 210.235 204.455L182.386 194.796C170.776 190.77 163.883 178.83 166.201 166.762L171.76 137.815C172.352 134.733 172.352 131.567 171.76 128.485L166.201 99.5384C163.883 87.4704 170.776 75.5309 182.386 71.5041L210.235 61.8452C213.2 60.8168 215.942 59.2336 218.315 57.1801L240.604 37.8922Z" fill="white" fill-opacity="0.2" style="mix-blend-mode:screen"/>
<g filter="url(#filter1_i_6_1951)">
<path fill-rule="evenodd" clip-rule="evenodd" d="M259.098 102.886C258.808 102.471 258.422 102.131 257.972 101.897C257.523 101.663 257.024 101.54 256.517 101.54C256.01 101.54 255.51 101.663 255.061 101.897C254.612 102.131 254.225 102.471 253.935 102.886L234.052 131.294L217.821 115.057C217.38 114.615 216.819 114.315 216.208 114.193C215.596 114.071 214.962 114.133 214.386 114.372C213.811 114.611 213.318 115.015 212.973 115.534C212.627 116.052 212.443 116.662 212.444 117.286V158.21C212.444 161.55 213.771 164.753 216.132 167.114C218.494 169.476 221.696 170.803 225.036 170.803H287.997C291.337 170.803 294.54 169.476 296.901 167.114C299.263 164.753 300.59 161.55 300.59 158.21V117.286C300.591 116.662 300.407 116.052 300.061 115.534C299.715 115.015 299.223 114.611 298.647 114.372C298.071 114.133 297.437 114.071 296.826 114.193C296.214 114.315 295.653 114.615 295.213 115.057L278.981 131.294L259.098 102.886Z" fill="#124344"/>
</g>
<g opacity="0.3" style="mix-blend-mode:multiply">
<path d="M252.94 272.803C246.156 272.122 239.536 269.408 234.051 264.662L210.051 243.893C206.78 241.062 203 238.88 198.913 237.462L168.927 227.062C155.738 222.487 146.965 210.505 146.075 197.12L146.036 197.141V196.422C145.988 195.393 145.988 194.357 146.036 193.316V180.876L166.243 164.316C163.799 177.861 171.577 191.196 184.61 195.717L209.217 204.251C212.571 205.415 215.673 207.205 218.357 209.528L238.052 226.571C242.387 230.323 247.588 232.527 252.94 233.184V272.803Z" fill="#124344"/>
</g>
<path d="M255.602 32.9178C262.38 32.7346 269.211 35.0052 274.67 39.7295L294.365 56.7723C297.049 59.0952 300.151 60.8861 303.505 62.0493L328.112 70.584C335.941 73.2996 341.875 79.1965 344.834 86.4089L366.051 82.3677C363.719 70.847 355.495 60.9635 343.798 56.9066L313.812 46.5062C309.725 45.0886 305.945 42.9062 302.674 40.0755L278.674 19.307C272.065 13.5883 263.807 10.82 255.602 11.0022V32.9178Z" fill="white"/>
<path d="M234.478 19.3071C247.287 8.22269 266.292 8.22267 279.101 19.307L303.101 40.0755C306.372 42.9062 310.152 45.0886 314.239 46.5062L344.225 56.9066C360.229 62.4574 369.731 78.9156 366.536 95.5507L360.55 126.72C359.734 130.968 359.734 135.333 360.55 139.581L366.536 170.75C369.731 187.385 360.229 203.843 344.225 209.394L314.239 219.794C310.152 221.212 306.372 223.394 303.101 226.225L279.101 246.994C266.292 258.078 247.287 258.078 234.478 246.994L210.478 226.225C207.207 223.394 203.427 221.212 199.34 219.794L169.354 209.394C153.35 203.843 143.848 187.385 147.043 170.75L153.029 139.581C153.845 135.333 153.845 130.968 153.029 126.72L147.043 95.5508C143.848 78.9156 153.35 62.4574 169.354 56.9066L199.34 46.5062C203.427 45.0886 207.207 42.9062 210.478 40.0755L234.478 19.3071Z" fill="url(#paint2_linear_6_1951)"/>
<path d="M196.929 31.2022C197.757 28.9635 200.924 28.9635 201.752 31.2022L204.677 39.1062C204.937 39.81 205.492 40.3649 206.196 40.6254L214.1 43.5501C216.339 44.3785 216.339 47.5448 214.1 48.3732L206.196 51.298C205.492 51.5584 204.937 52.1133 204.677 52.8172L201.752 60.7211C200.924 62.9598 197.757 62.9598 196.929 60.7211L194.004 52.8172C193.744 52.1133 193.189 51.5584 192.485 51.298L184.581 48.3732C182.342 47.5448 182.342 44.3785 184.581 43.5501L192.485 40.6254C193.189 40.3649 193.744 39.81 194.004 39.1062L196.929 31.2022Z" fill="white"/>
<path d="M314.339 190.506C314.876 189.056 316.927 189.056 317.463 190.506L319.358 195.626C319.527 196.082 319.886 196.441 320.342 196.61L325.462 198.505C326.913 199.041 326.913 201.093 325.462 201.629L320.342 203.524C319.886 203.693 319.527 204.052 319.358 204.508L317.463 209.628C316.927 211.079 314.876 211.079 314.339 209.628L312.444 204.508C312.276 204.052 311.916 203.693 311.46 203.524L306.34 201.629C304.89 201.093 304.89 199.041 306.34 198.505L311.46 196.61C311.916 196.441 312.276 196.082 312.444 195.626L314.339 190.506Z" fill="white"/>
</g>
<defs>
<filter id="filter0_ddddd_6_1951" x="0" y="1.99377" width="378.153" height="457.981" filterUnits="userSpaceOnUse" color-interpolation-filters="sRGB">
<feFlood flood-opacity="0" result="BackgroundImageFix"/>
<feColorMatrix in="SourceAlpha" type="matrix" values="0 0 0 0 0 0 0 0 0 0 0 0 0 0 0 0 0 0 127 0" result="hardAlpha"/>
<feOffset dx="-4" dy="6"/>
<feGaussianBlur stdDeviation="7.5"/>
<feColorMatrix type="matrix" values="0 0 0 0 0.101961 0 0 0 0 0.0313726 0 0 0 0 0.168627 0 0 0 0.98 0"/>
<feBlend mode="normal" in2="BackgroundImageFix" result="effect1_dropShadow_6_1951"/>
<feColorMatrix in="SourceAlpha" type="matrix" values="0 0 0 0 0 0 0 0 0 0 0 0 0 0 0 0 0 0 127 0" result="hardAlpha"/>
<feOffset dx="-16" dy="22"/>
<feGaussianBlur stdDeviation="13.5"/>
<feColorMatrix type="matrix" values="0 0 0 0 0.101961 0 0 0 0 0.0313726 0 0 0 0 0.168627 0 0 0 0.85 0"/>
<feBlend mode="normal" in2="effect1_dropShadow_6_1951" result="effect2_dropShadow_6_1951"/>
<feColorMatrix in="SourceAlpha" type="matrix" values="0 0 0 0 0 0 0 0 0 0 0 0 0 0 0 0 0 0 127 0" result="hardAlpha"/>
<feOffset dx="-35" dy="50"/>
<feGaussianBlur stdDeviation="18.5"/>
<feColorMatrix type="matrix" values="0 0 0 0 0.101961 0 0 0 0 0.0313726 0 0 0 0 0.168627 0 0 0 0.5 0"/>
<feBlend mode="normal" in2="effect2_dropShadow_6_1951" result="effect3_dropShadow_6_1951"/>
<feColorMatrix in="SourceAlpha" type="matrix" values="0 0 0 0 0 0 0 0 0 0 0 0 0 0 0 0 0 0 127 0" result="hardAlpha"/>
<feOffset dx="-63" dy="89"/>
<feGaussianBlur stdDeviation="22"/>
<feColorMatrix type="matrix" values="0 0 0 0 0.101961 0 0 0 0 0.0313726 0 0 0 0 0.168627 0 0 0 0.15 0"/>
<feBlend mode="normal" in2="effect3_dropShadow_6_1951" result="effect4_dropShadow_6_1951"/>
<feColorMatrix in="SourceAlpha" type="matrix" values="0 0 0 0 0 0 0 0 0 0 0 0 0 0 0 0 0 0 127 0" result="hardAlpha"/>
<feOffset dx="-98" dy="139"/>
<feGaussianBlur stdDeviation="24"/>
<feColorMatrix type="matrix" values="0 0 0 0 0.101961 0 0 0 0 0.0313726 0 0 0 0 0.168627 0 0 0 0.02 0"/>
<feBlend mode="normal" in2="effect4_dropShadow_6_1951" result="effect5_dropShadow_6_1951"/>
<feBlend mode="normal" in="SourceGraphic" in2="effect5_dropShadow_6_1951" result="shape"/>
</filter>
<filter id="filter1_i_6_1951" x="208.91" y="101.54" width="91.6793" height="72.796" filterUnits="userSpaceOnUse" color-interpolation-filters="sRGB">
<feFlood flood-opacity="0" result="BackgroundImageFix"/>
<feBlend mode="normal" in="SourceGraphic" in2="BackgroundImageFix" result="shape"/>
<feColorMatrix in="SourceAlpha" type="matrix" values="0 0 0 0 0 0 0 0 0 0 0 0 0 0 0 0 0 0 127 0" result="hardAlpha"/>
<feOffset dx="-3.53356" dy="3.53356"/>
<feGaussianBlur stdDeviation="2.65017"/>
<feComposite in2="hardAlpha" operator="arithmetic" k2="-1" k3="1"/>
<feColorMatrix type="matrix" values="0 0 0 0 0 0 0 0 0 0 0 0 0 0 0 0 0 0 0.25 0"/>
<feBlend mode="normal" in2="shape" result="effect1_innerShadow_6_1951"/>
</filter>
<linearGradient id="paint0_linear_6_1951" x1="256.79" y1="28.6616" x2="256.79" y2="272.975" gradientUnits="userSpaceOnUse">
<stop stop-color="#1A2FE9"/>
<stop offset="1" stop-color="#C64DBA"/>
</linearGradient>
<radialGradient id="paint1_radial_6_1951" cx="0" cy="0" r="1" gradientUnits="userSpaceOnUse" gradientTransform="translate(256.789) rotate(90) scale(266.301)">
<stop stop-color="#95CCEA"/>
<stop offset="1" stop-color="#104D7D"/>
</radialGradient>
<linearGradient id="paint2_linear_6_1951" x1="256.789" y1="0" x2="256.789" y2="266.301" gradientUnits="userSpaceOnUse">
<stop stop-color="#1A2FE9"/>
<stop offset="1" stop-color="#C64DBA"/>
</linearGradient>
</defs>
</svg>
